<svg id="Layer_1" data-name="Layer 1" xmlns="http://www.w3.org/2000/svg" viewBox="0 0 381 381"><defs><style>.cls-1{fill:#fdfdfd;}.cls-2{fill:#b28e74;}.cls-3{fill:#f5d3ad;}.cls-4{fill:#544d45;}.cls-5{fill:#201e1f;}.cls-6{fill:#9db5b7;}.cls-7{fill:#82c9a4;}.cls-8{fill:#f4d3ad;}.cls-9{fill:#debd80;}.cls-10{fill:#80c6c9;}.cls-11{fill:#999995;}.cls-12{fill:#afb88d;}.cls-13{fill:#83c9a5;}.cls-14{fill:#ecedeb;}.cls-15{fill:#d5cbc2;}.cls-16{fill:#fbfbfa;}.cls-17{fill:#e7f0f0;}.cls-18{fill:#7b796f;}.cls-19{fill:#83a8a9;}.cls-20{fill:#85aaab;}.cls-21{fill:#8aadae;}.cls-22{fill:#9ab8b9;}.cls-23{fill:#caa487;}.cls-24{fill:#e4e4db;}.cls-25{fill:#f9f9f8;}.cls-26{fill:#19191a;}.cls-27{fill:#838383;}.cls-28{fill:#ececec;}.cls-29{fill:#796c5f;}.cls-30{fill:#eee;}.cls-31{fill:#ccb78d;}.cls-32{fill:#fcfcfc;}.cls-33{fill:#cfbe90;}.cls-34{fill:#60574d;}.cls-35{fill:#5c534a;}.cls-36{fill:#c45982;}.cls-37{fill:#fbfafa;}.cls-38{fill:#4d4740;}.cls-39{fill:#f0e0cb;}.cls-40{fill:#e2e0db;}.cls-41{fill:#8f9b97;}.cls-42{fill:#a19e99;}.cls-43{fill:#f6f8f8;}.cls-44{fill:#f7f9f9;}.cls-45{fill:#f5f8f8;}.cls-46{fill:#f0e3d4;}.cls-47{fill:#e26e90;}.cls-48{fill:#eff0f0;}.cls-49{fill:#d0c198;}.cls-50{fill:#5c5e5d;}.cls-51{fill:#e7e8e7;}.cls-52{fill:#5a5053;}</style></defs><title>Artboard 1</title><path class="cls-1" d="M249.29,164.33c4.84-8.74,9.55-17.55,14.58-26.19,1.85-3.19,2.24-5.37-.31-8.73-14.81-19.52-14.78-41,1.28-59.4,13.43-15.38,31.27-20.17,51.24-16.21C338,58.14,353.64,74.67,356,96.8c1.9,18-8.33,37.37-28.86,46.57-14.71,6.6-29.67,7-44.47.15-3.36-1.55-5.7-1.19-8.48,1.33-7.79,7-15.86,13.71-23.82,20.53C249.4,165.62,249,165.38,249.29,164.33Z"/><path class="cls-2" d="M139.23,226.42c-.9-5.92,2.73-6.69,7.29-6.41,2.37.2,4.1-1.19,5.91-2.41a4.44,4.44,0,0,1,2-.12c1.51.3,2.77,1.49,4.45,1.19,3.16-.58,6.43-.14,9.54-1.14a38,38,0,0,1,4.27,0,15.54,15.54,0,0,1,2.21.65c3.92.9,8.26-1.11,11.89,1.73,3,4.74,1.07,10,1.61,15,.26,2.37.16,4.8,3.39,5.13,3.06.31,5.25-.48,5.34-4.1.08-3.15,0-6.29.08-9.44,0-2.15,0-4.32,1.31-6.21,1-1.23,2.45-1.65,3.8-2.27a9.08,9.08,0,0,1,3.7-.24c10.07.08,20.14,0,30.21,0,2.34,0,4.68-.06,6.16,2.26,3-.17,4.12,1.27,4,4.23-.16,2.64.07,5.31.14,8a13.86,13.86,0,0,1,0,15.15c-.06,6.81-.24,13.63-.13,20.44,0,3.12-.83,4.9-4.19,4.36-5.05-.81-6.37,1.54-5.93,6.17.21,2.18.9,4.65-.81,6.7a5.13,5.13,0,0,1-1.17-1.37c-1.57-9.34-2.24-9.9-12-9.9q-29.7,0-59.4,0c-3.2,0-6.34.11-9.12,1.91-1.4,1.27-1.3,3-1.38,4.65-.1,1.91-.53,3.63-2.25,4.76-1.86-2.74-.85-5.82-.82-8.7,0-3.31-1.18-4.65-4.37-4.17-4.39.67-5.8-1.09-5.63-5.52.3-7.79,0-15.61-.07-23.42C136.32,238.93,136.32,230.79,139.23,226.42Z"/><path class="cls-3" d="M152.31,185.2c-1.6-9.3-1.21-18.6-.2-27.91-1.45-10.59,4.74-18.24,15.44-18.91,5.91-.38,11.88.2,17.76-.93a18.12,18.12,0,0,0,7.07-.33c9.72-.7,19.49-.46,29.18-1.64,7.15-.87,10.19,1.13,11.76,8.06a33.93,33.93,0,0,1,1,9.83c0,1.18,0,2.35,0,3.53v42.16c-2.46,3-5.87,1.31-8.84,1.79H206.56c-3.26.63-6.68-2.11-9.87.44a9.62,9.62,0,0,1-6.46.1c-4.38-.65-8.74.46-13.11.08-2.09-.18-4.25.14-6.21-.92-1.59-.84-2.17-2.36-2.67-4-2-6.34-6.14-9.9-12.93-10.09C154.14,186.47,153,186.34,152.31,185.2Z"/><path class="cls-4" d="M233.42,154.3c-.95-4.19-2.23-8.34-2.75-12.59-.46-3.83-2.34-4.37-5.67-4.17-10.9.68-21.82,1.11-32.74,1.64-2.33-.38-4.66-.8-7,.2-7.49,1.64-15.17.81-22.74,1.57-2.95.29-4.35,1.3-5.32,4-1.51,4.19-3.4,8.25-5.13,12.36-5-6.51-7.61-14.34-11.75-21.33-.68-1.14-1.16-2.39-1.78-3.57-4.34-8.29-4.29-8.18,4-12,12.1-5.55,24.16-11.18,36.12-17,3.69-1.8,5.75-1.74,6.24,2.85.42,3.85,2.34,3,4.68,1.52,7.27-4.69,14.6-9.3,21.93-13.89,1.6-1,3.1-2.38,6.06-2.4-2.38,4.84-4.51,9.07-6.51,13.35-.6,1.28-2.34,2.75-1.24,3.95,1.4,1.52,3.06-.31,4.47-.91,4.19-1.77,8.1-4.25,13.21-5.65-1.63,5.21-5.74,8-7.78,12.75l8.5-.65c.79,2-.71,2.92-1.43,4-3.52,5.5-3.55,5.43,3,6.78,4,.84,10,0,11.56,3.06,1.45,2.77-1.26,7.79-2.31,11.77-1.19,4.5-2.58,8.94-3.89,13.4C234.77,153.9,234.51,154.9,233.42,154.3Z"/><path class="cls-5" d="M235.17,284.28c.08.28.17.57.27.84-4,.07-7.95.38-11.91.15-3.28-.2-3.79,1.59-4.11,4.15q-2.41,19-5,37.89c-.4,2.92.16,4,3.46,4.16,2.5.11,6-2.28,7.62,1.87.8,2.18-.67,3-2.28,3.67a7.91,7.91,0,0,1-2.94.41c-16.72.56-14.38-.95-14.43-13.31,0-9.15.05-18.29,0-27.44-.05-7.68-2.09-9.81-9.77-9.77-4.9,0-10.05-1.12-14.45,2.24-1.44,2.08-1.08,4.46-1.09,6.74-.05,10.08,0,20.16,0,30.24a24.74,24.74,0,0,1-.74,7.37c-.55,2.48-2.33,3.57-4.64,3.79a58,58,0,0,1-11.41,0c-2.36-.24-4.05-1.31-3.87-4.15s2.38-2.12,4-2.24a35.22,35.22,0,0,1,4,0c2.84.13,3.54-1.19,2.6-3.69-1.62-12.83-3.32-25.64-4.78-38.48-.32-2.84-1.48-3.51-4.08-3.41-3.8.15-7.62-.07-11.44-.13q.07-5.89.13-11.78c1.55-.94,3.26-.49,4.88-.5q37.2,0,74.39,0c5.28,0,5.25,0,5.31,5.49C234.86,280.32,234.49,282.33,235.17,284.28Z"/><path class="cls-6" d="M178.41,286.37c.82-2,2.57-1.09,3.88-1.11,6.8-.1,13.61.17,20.39-.13,3.86-.17,4.73,1.26,4.69,4.86-.19,13.76,0,27.52-.16,41.28-.06,3.48.86,4.78,4.39,4.52s7-.09,10.44-.05c1.76,0,3.39,0,3.43-2.4,5.77,1.8,11.83.9,17.7,1.93,2.45.42,4.92.46,7.11,1.88-6.42,6.35-104.6,6.52-113.76-.2,6.11-1.93,12-2.16,17.83-2.58,2.13-.16,4.11.19,5.2-2.62,1-2.56,3.79-1.34,5.81-1.48,2.29-.17,4.9.44,5.06-3.1,1.41,2.51,1.27,4.11-2.2,4-2-.08-4,0-6,0-1.08,0-2,.33-2.11,1.6-.1,1-.17,2.44,1,2.47,5.58.13,11.21,1.08,16.72-.56.3-.09.38-.88.55-1.35,1.53-1.91,3.67-2.06,5.88-2.09,5-.08,10,0,15-.06,3.3,0,4.87-1.51,4.88-4.85q.06-16.49,0-33c0-3.34-1.58-4.82-4.88-4.85-5,0-10,0-15-.06C182.08,288.43,179.93,288.29,178.41,286.37Z"/><path class="cls-7" d="M152.31,185.2c10.49-2,17.22,3.22,18.15,14.08,1.62,2.06,1.16,4.17.17,6.29-2.93,4.49-6.48,8.08-12.29,8.32a9.56,9.56,0,0,1-4.09,0,3.78,3.78,0,0,1-3.84-2.69c-5.2-3.2-8.56-7.7-7.9-13.95C143.14,191.35,146.34,187,152.31,185.2Z"/><path class="cls-8" d="M246.5,247.45q0-7.57,0-15.15a9.33,9.33,0,0,1,8.16-.23c3.69,1.8,6.07,4.68,5.44,9.07-.58,4-4.68,7.21-8.78,7.26A10.59,10.59,0,0,1,246.5,247.45Z"/><path class="cls-8" d="M139.23,226.42q0,8.46,0,16.92c-3.62.07-7.38.64-9.88-3-2.06-3-2.5-6.09-.73-9.32C131,226.78,134.82,225.93,139.23,226.42Z"/><path class="cls-9" d="M242.41,220.11c-9.87-1.38-19.79-.29-29.68-.63-2.48-.08-5-.08-7.44-.12a1.21,1.21,0,0,1,.22-1.54c3.09-1.8,6.48-.83,9.73-.92,5.8-.16,11.61-.08,17.29,0-.14,0,0,0-.13,0-7.36,0-14.61,0-21.85,0-1.92,0-4,.46-5.47-1.49a1.62,1.62,0,0,1,.59-1.62c2-1.22,4.21-.91,6.33-.82,10,.4,20.19-1.28,30.12,1.51C242.22,216.3,242.32,218.2,242.41,220.11Z"/><path class="cls-10" d="M238.33,207.45c0,1.92-.05,3.84-.07,5.76-4.36,1.38-8.83.51-13.23.59-6.79.11-13.58.23-20.36-.08-.44-3.44,2.13-2.8,4-2.84,7.53-.19,15.08.23,22.52-.23-7-1.79-14-.31-20.91-.81-2.07-.15-4.34.61-6.07-1.25a1.62,1.62,0,0,1,.08-1.62,3.57,3.57,0,0,1,1.54-.89c9.54-.49,19.07-.14,28.6-.19a5.48,5.48,0,0,1,3.3.81Z"/><path class="cls-11" d="M236.07,200.15l3.86.27c2.31.16,2.18,1.87,2.32,3.51.26,3-1.56,3.52-3.92,3.52l-.07-.23c-10.83-.89-21.69,0-32.52-.45-.71-3.58,2-2.86,3.84-2.88,7.14-.09,14.29,0,21.44-.06,1.64,0,3.32.34,4.86-.38.34-1.14-1-1.79-.84-2.85A.79.79,0,0,1,236.07,200.15Z"/><path class="cls-12" d="M204.45,213.41l33.81-.2c1.32.27,2.88-.22,3.86,1.19h-36.8C204.45,214.58,204.13,214.27,204.45,213.41Z"/><path class="cls-13" d="M149.32,218.43c-2.54,0-5.33-.16-5.25-3.46s3-2.6,5.17-2.56c2.91,1.22,2.95,3.26,1.64,5.7A1.28,1.28,0,0,1,149.32,218.43Z"/><path class="cls-14" d="M150.28,218.34c.21-2.07.19-4.11-1-5.93l1.17-1.24,4,1.26c1.66,2,2,4-.24,5.89l-2-.32C151.61,218.42,151.05,219,150.28,218.34Z"/><path class="cls-15" d="M150.28,218.34l1.91-.34c-.3,5.18-3.88,1.07-5.67,2l2.8-1.58A7.79,7.79,0,0,1,150.28,218.34Z"/><path class="cls-16" d="M236.07,200.15a3,3,0,0,0-.7.32c-3.12,2.16-6.38,1.63-9.68.55a1.24,1.24,0,0,1-.37-1.63l9-.32Z"/><path class="cls-17" d="M249.29,164.33l1.05,1c-.55.73-1.13,2.12-2.08,1.29C247.49,166,248.59,165,249.29,164.33Z"/><path class="cls-18" d="M233.42,154.3l1.85-1a5.15,5.15,0,0,1-1,3.56A2.66,2.66,0,0,1,233.42,154.3Z"/><path class="cls-19" d="M281.44,108.58c-7.28,0-7.28,0-7.28-7.24,0-3.83,0-7.66,0-11.49,0-1.13-.18-2.38.9-3.21s11.61-.45,13.21.76c3.08,2.34,3.14,5.25,1.22,8.35-.53.85-.28,1.33.21,2.13,4.07,6.72,2,10.43-5.78,10.69C283.11,108.6,282.27,108.58,281.44,108.58Z"/><path class="cls-20" d="M321.69,91.29c3.1,0,5.55.86,7.3,3.13a6,6,0,0,1,1.06,6.1c-.82,1.84-2.94.93-4.5,1s-3.32,0-5,.06c-1,.07-2.65-.52-2.64,1.29,0,1.26,1.22,1.94,2.36,2.26a7.77,7.77,0,0,0,5.35-.32c1.16-.5,2.37-.78,2.93.68.45,1.18-.63,1.8-1.48,2.22-3.53,1.76-7.1,1.9-10.3-.61a8.42,8.42,0,0,1-3-9.78A8.3,8.3,0,0,1,321.69,91.29Z"/><path class="cls-20" d="M302.83,103.94c1.69-4.31,2.88-7.39,4.1-10.46.55-1.36,1.48-2.36,3.05-1.84,2.08.69.91,2.17.48,3.26-2.23,5.55-4.54,11.07-6.83,16.59a5.67,5.67,0,0,1-4.82,3.82c-1.65.16-3.75.21-4.07-1.83s1.54-1.89,3.1-2c3-.25,2.85-2.36,2.08-4.4-1.36-3.57-3-7-4.26-10.64-.49-1.44-2.69-3.61-.14-4.64s3,1.83,3.79,3.54C300.38,97.72,301.31,100.19,302.83,103.94Z"/><path class="cls-21" d="M334.2,91.87c.95-2-1.9-6.24,2.41-6.06s2.11,4.22,2.13,6.69c0,2.14-.3,4.27-.49,6.4-.09,1-.11,2.14-1.37,2.28-1.69.2-1.67-1.22-1.82-2.32C334.75,96.58,334.49,94.29,334.2,91.87Z"/><path class="cls-22" d="M339,106.07a2.57,2.57,0,0,1-2.36,2.82,2.09,2.09,0,0,1-2.37-2,2.25,2.25,0,0,1,2-2.86C337.88,103.8,338.58,104.9,339,106.07Z"/><path class="cls-23" d="M199.41,220.56c0,5.64-.27,11.28-.07,16.91.19,5.14-3.1,4.87-6.59,4.91s-6.68,0-6.47-5c.24-5.63,0-11.27,0-16.91a2.2,2.2,0,0,1,.89-1.79,4.47,4.47,0,0,1,1.21-.57c1-.26,2.16-.09,2.93-1a17.12,17.12,0,0,0,1.53-5.2c.21-1.48.61-3,2.76-2.58,1.1.81,1.06,2.11,1.38,3.25.57,2.28-.21,4.95,1.93,6.8A3.09,3.09,0,0,1,199.41,220.56Z"/><path class="cls-24" d="M204.45,213.41l.87,1c0,.24,0,.48.05.73,1.56,1.46,3.47.62,5.2.7,9.89.41,19.81-.65,29.69.56a2,2,0,0,1-.9,2c-11.33-.79-22.65-1.27-34,.26a5.07,5.07,0,0,1-.11.68l-3,.28a1.52,1.52,0,0,1-1.64-1.19,40.81,40.81,0,0,1,.4-5.29c.39-1,.76-2,1.15-3.07a2.21,2.21,0,0,1,2.17-1.26c9.55,0,19.1,0,28.65,0,2.2,0,4.73-.29,3.28,3.33-8.92.07-17.84.1-26.76.24C207.83,212.45,205.88,211.7,204.45,213.41Z"/><path class="cls-25" d="M158.37,212.45c4.71-.83,8-3.71,10.74-7.4,2.17.24,3,1.67,3.37,3.63.34,2.78-3.27,4.78-1.56,7.84a2.22,2.22,0,0,1-1.67,2.07c-3.18,3-7.17.89-10.71,1.67C155.84,217.72,155.81,215.11,158.37,212.45Z"/><path class="cls-26" d="M235.17,284.28c-1.33-1.79-1-3.88-.8-5.81.33-3.91-1.14-5.24-5.12-5.2-16,.19-32,.08-48,.08l-31,0c1.28-2,3.31-1.07,5-1.07,24.87-.07,49.74.06,74.61-.15,4.5,0,6.41,1.08,5.71,5.7C235.22,280,235.28,282.13,235.17,284.28Z"/><path class="cls-27" d="M169.25,218.59c.31-.71.62-1.42.94-2.13.13-3.9,2.94-5.13,6-6.09,2.67.65,5.38-.5,8.06.15,2.51,1.38,5.26,2.42,7,4.92a6.53,6.53,0,0,1,1,4.11c-1.44,1.14-2.77-.33-4.17-.17a6.14,6.14,0,0,0-3.59-1.77,9.24,9.24,0,0,0-8.6-.07,24.5,24.5,0,0,1-4,.89C171.09,219.17,170.31,221.33,169.25,218.59Z"/><path class="cls-28" d="M175.22,216.15c3.39-2.21,6.77-2.32,10.16,0a13.57,13.57,0,0,1,2,3.22l-1,1.08c-4.32-.79-8.84.9-13.06-1.06.3-.39.74-.89,1.13-.78,1.92.57,1.63,0,.66-1.12C174.75,217.14,175,216.57,175.22,216.15Z"/><path class="cls-29" d="M158.37,212.45c.06,2.6.11,5.21.17,7.81-1.73,0-3.69.48-4.34-1.94l.24-5.89Z"/><path class="cls-30" d="M175.22,216.15c2.12,2.78.8,3.44-2,3.23l-1.29-.95Z"/><path class="cls-31" d="M201.31,218.35l1,1.29-2.9.92-.14-.39a2.25,2.25,0,0,1,1.07-3.07C201.11,217.15,201.77,217.31,201.31,218.35Z"/><path class="cls-32" d="M171.39,209.6c-.09-1.85-1.48-3-2.28-4.55l1.35-5.77c7,.41,14-.92,20.88.78.11,2.82-2.3,3.5-4,4.77-3.54,2.35-5.85,6.93-11.13,6.13C174.45,211,172.62,211.37,171.39,209.6Z"/><path class="cls-33" d="M203.56,209.36c-.12.64-.25,1.27-.38,1.9-1.8.2-2-1.18-2.37-2.39-.57-1.4-.24-2.91-.5-5.05-1.36,2.19-1.4,4.15-2,5.9-.54,1.54-.3,3.82-3,3.63l0-4a3.57,3.57,0,0,1-1.45-3.66,5.18,5.18,0,0,1,2.4-5c2.36-4.86,6-.89,9-1.33a6.82,6.82,0,0,1,1,1.15,3.66,3.66,0,0,1,.31,2.23c-.77,1.53-1.6,3-2.22,4.64a6.22,6.22,0,0,0-.06.86C204.5,208.89,203.7,208.92,203.56,209.36Z"/><path class="cls-34" d="M221.64,169.15c-2-.15-3.53-1.1-3.74-3.22-.24-2.41,1.14-3.77,3.49-3.86a3.15,3.15,0,0,1,3.54,3.32C225,167.44,223.78,168.76,221.64,169.15Z"/><path class="cls-35" d="M172.21,165.3c-.09,2.14-1.21,3.54-3.25,3.71-2.34.21-3.76-1.13-3.81-3.51a3.07,3.07,0,0,1,3.37-3.41A3.41,3.41,0,0,1,172.21,165.3Z"/><path class="cls-36" d="M196.23,200.67l-.88,4.69c-2.82,2.58-5.79,2.72-8.91.59-.63-.86-.89-1.71.11-2.51l4.79-3.38C193.13,199,194.55,200.84,196.23,200.67Z"/><path class="cls-37" d="M205.41,200.2a3.2,3.2,0,0,0-.17-.86l20.08,0v.78a3.77,3.77,0,0,1-3.94,1.6C216.06,201.24,210.46,203.47,205.41,200.2Z"/><path class="cls-38" d="M185.3,139.38c2.28-1.56,4.61-1.39,7-.2Z"/><path class="cls-39" d="M240.26,216.38c-9.93,0-19.87,0-29.81,0-1.76,0-3.7.5-5.08-1.21,9.93,0,19.86.06,29.79.16C236.9,215.3,238.86,214.67,240.26,216.38Z"/><path class="cls-39" d="M205.4,218.68c.22-.24.43-.68.67-.7,11.1-.71,22.22-1.63,33.29.44Z"/><path class="cls-24" d="M204.33,207.36a9.06,9.06,0,0,1,1-5.21c2.48-1.37,5.19-.8,7.79-.76,9.06.14,18.17-.72,27.19.88.54,3.49-1.89,3.21-4.08,3.21-8.65,0-17.31,0-26,0-1.59,0-3.35-.59-4.72.84.28.28.33.51.17.67a.55.55,0,0,1-.4.21Z"/><path class="cls-40" d="M203.56,209.36l.71-1.14,29.12.14c2.62,0,5,.23,2.92,3.82-.11-3.32-2.59-2.81-4.65-2.82C222.29,209.34,212.93,209.36,203.56,209.36Z"/><path class="cls-41" d="M205.33,207.23a1.81,1.81,0,0,1,.23-.88c9.13,0,18.27,0,27.4,0,1.8,0,3.69-.39,5.3.85Z"/><path class="cls-42" d="M240.32,202.27l-35-.12c0-.65,0-1.3.08-2l19.91,0,10.05.3Z"/><path class="cls-43" d="M283,99.14c1.55.32,5-.76,5,2.92-.07,3.4-3.37,3-5.76,3.1-2,.12-4,.26-4.1-2.8S280,99,283,99.14Z"/><path class="cls-44" d="M282,95.38c-2.12.11-4,.1-3.92-2.93,0-2.52,1.32-3.1,3.44-2.94s4.76,0,5,2.81C286.82,95.38,284.18,95.29,282,95.38Z"/><path class="cls-45" d="M321.83,98.7c-1.36-.62-4,1-3.88-1.64.07-2,2.26-2.66,4.22-2.64s4.24.81,4.08,2.77C326,99.84,323.29,98,321.83,98.7Z"/><path class="cls-46" d="M195.3,213.35c1.68-3.09,1.29-6.68,2.44-9.9.63-1.75,1.1-3.58,3.61-3,2.68.58,1.39,2.39,1.22,3.89-.16,1.3-.22,2.62-.32,3.92-.93,1.41-.12,2.87-.16,4.31-.58,1.61-.48,3.46-1.65,4.87-.39.93-.79,1.85-1.18,2.78C192.89,220.83,196,216,195.3,213.35Z"/><path class="cls-47" d="M186.26,205.35h9.09c0,1.31,0,2.63-.07,3.94-1.8,3.18-.75,7.19-3,10.25L190,216.16c1-2.26-.27-3.43-2.1-4.28-1.18-.55-2.63-.6-3.35-1.95C183.77,207.9,184.71,206.5,186.26,205.35Z"/><path class="cls-48" d="M187.33,219.36c-1.87-.33-2-1.72-2-3.22,1.63.47,3,1.17,2.73,3.24l-.39,0Z"/><path class="cls-33" d="M200.44,217.4l.92-5c.9-.23,1.39,0,1,1-.14,1.7.38,3.53-1,5Z"/><path class="cls-49" d="M202.34,213.38c-.33-.34-.66-.67-1-1,0-1.45-.11-2.92.89-4.15.08,1.09.05,2.21.93,3Z"/><path class="cls-50" d="M171.39,209.6a8,8,0,0,1,4.84.79c.71.16.77.44.16.86l-6.2,5.21C166.06,213.37,169.77,211.67,171.39,209.6Z"/><path class="cls-51" d="M176.39,211.25c0-.29-.1-.58-.16-.86,4.24-1.12,6.89-4.61,10.32-6.95-.1.64-.19,1.27-.29,1.91-.25,1.51-.5,3-.76,4.55.11,1-.49,1.24-1.28,1.34A6.5,6.5,0,0,1,176.39,211.25Z"/><path class="cls-52" d="M184.22,211.24l1.28-1.34c2.71-.81,4.75-.05,6,2.56.84,1.77.66,3.13-1.49,3.7C188.5,214,185.05,214.18,184.22,211.24Z"/></svg>