<svg id="Group_20" data-name="Group 20" xmlns="http://www.w3.org/2000/svg" viewBox="0 0 235.77 144.38"><defs><style>.cls-1{opacity:0.07;isolation:isolate;}.cls-2{fill:#fdfdfd;}.cls-3{fill:#f5d3ad;}.cls-4{fill:#544d45;}.cls-5{fill:#82c9a4;}.cls-6{fill:#e7f0f0;}.cls-7{fill:#7b796f;}.cls-8{fill:#60574d;}.cls-9{fill:#5c534a;}.cls-10{fill:#4d4740;}.cls-11{fill:#fff;}.cls-12{fill:#8aadae;}</style></defs><title>Artboard 2</title><path id="Union_2" data-name="Union 2" class="cls-1" d="M9.41,294.88c6.42-2,12.63-2.32,18.73-2.74,2.21-.21,4.32.21,5.48-2.74.76-2,2.5-1.81,4.21-1.64a10,10,0,0,0,1.89.06c2.42-.21,5.16.42,5.37-3.26a9.4,9.4,0,0,1,.7,1.51,5.91,5.91,0,0,0-.38-1.61c-1.69-13.48-3.47-26.95-5-40.52C40,241,38.78,240.25,36,240.36c-4,.1-8-.11-12-.11v-.15l-.21.15c-2-2.84-.95-6.1-.84-9.15,0-3.48-1.26-4.84-4.63-4.42-4.63.73-6.1-1.16-5.9-5.79.32-8.21,0-16.42-.1-24.63-3.79.1-7.79.63-10.42-3.16-2.21-3.15-2.63-6.42-.74-9.78,2.42-4.53,6.53-5.37,11.16-4.85-.94-6.17,2.79-7,7.59-6.74.94-.52,2-1.15,2.94-1.68h0c-2.6,0-5.48-.25-5.48-3.68.11-3.58,3.16-2.74,5.48-2.74l.07,0,1.19-1.18.15,0a.88.88,0,0,0-.05-.15c-5.47-3.37-9-8.1-8.31-14.73.53-6.1,3.89-10.74,10.21-12.63-1.69-9.79-1.27-19.58-.21-29.37-5.26-6.84-8-15-12.42-22.41a41.89,41.89,0,0,1-1.9-3.79c-4.53-8.73-4.53-8.63,4.21-12.63,12.74-5.9,25.47-11.79,38-17.89,3.9-1.9,6.1-1.79,6.53,2.94.42,4,2.42,3.16,4.95,1.58,7.68-4.94,15.36-9.79,23-14.63,1.68-1.05,3.26-2.52,6.41-2.52-2.52,5.05-4.73,9.58-6.84,14.1-.63,1.37-2.42,2.84-1.26,4.1,1.47,1.58,3.26-.32,4.74-1,4.42-1.89,8.52-4.53,13.89-6C103.6,53,99.29,56,97.08,61c3.26-.21,6.1-.42,8.94-.74.85,2.11-.73,3.06-1.47,4.32-3.68,5.79-3.68,5.68,3.16,7.16,4.21.84,10.52,0,12.21,3.26,1.47,2.95-1.37,8.21-2.42,12.42-1.26,4.72-2.73,9.34-4.1,14.07a5.24,5.24,0,0,1-.85,3.37v44.86h0c.63.37,1.12.66,1.69,1l4.1.31c2.42.21,2.32,2,2.42,3.69.32,3.15-1.68,3.68-4.1,3.68,0,2,0,3.93-.1,6,1.37.31,3-.21,4.1,1.26h-.88l.78.21c.21,1.79.31,3.79.42,5.79h-.07l.07.12c3.16-.21,4.31,1.36,4.1,4.42-.21,2.73.1,5.58.1,8.42l.1.17v-.17a9.94,9.94,0,0,1,8.63-.21c3.9,1.89,6.43,4.94,5.69,9.57-.63,4.21-5,7.58-9.26,7.69a16.5,16.5,0,0,1-5.05-1.16v-.18l-.11.18c-.1,7.16-.21,14.31-.1,21.47.1,3.26-.84,5.15-4.42,4.63-5.26-.84-6.74,1.58-6.21,6.52.21,2.32,1,4.95-.84,7.05l-.13-.1a119.26,119.26,0,0,1-12.4.1c-3.47-.21-4,1.69-4.31,4.42-1.69,13.27-3.47,26.63-5.26,39.89-.42,3.06.21,4.21,3.68,4.42a9.69,9.69,0,0,0,2.34-.31c2.16-.44,4.44-.9,5.66,2.31a1.42,1.42,0,0,1,0,.16c6.06,1.83,12.32.9,18.47,1.95,2.53.42,5.16.52,7.48,2-3.37,3.31-30.89,5-58.78,5S14.25,298.4,9.41,294.88Zm24.84-4.42a3.34,3.34,0,0,0,.27,2.24,5.36,5.36,0,0,1-.27-2,4.28,4.28,0,0,1,.11-.8,2.28,2.28,0,0,0-.11.59Zm22.84-46c-1.48,2.21-1.16,4.74-1.16,7V283.3a36.06,36.06,0,0,1-.34,6.05,10.78,10.78,0,0,1,4-.58c5.26-.1,10.53,0,15.79-.1,3.47,0,5.16-1.58,5.16-5.06V248.88c0-3.47-1.69-5-5.16-5.15-5.26,0-10.53,0-15.79-.11-.43,0-.86,0-1.28,0a10.23,10.23,0,0,0-1.24.82ZM20,171.74a6.17,6.17,0,0,0,1.29,0,2,2,0,0,0-1.38,0ZM81,164.69h.17a1.15,1.15,0,0,0,0-.19c0,.06-.11.12-.16.19Zm35.68-6.21-.11-.21h0l.15.21Zm-35.83-.38,0,0v0Zm1.3-.88.05.05.07,0a.71.71,0,0,1,0-.14.94.94,0,0,0-.1.1Zm44.94-41.68c-.74-.74.42-1.79,1.16-2.42l1.05,1c-.41.58-.9,1.62-1.6,1.62a1,1,0,0,1-.61-.25Z"/><g id="Group_14" data-name="Group 14"><g id="Group_12" data-name="Group 12"><path id="Path_4" data-name="Path 4" class="cls-2" d="M128.84,111.84c4.8-8.7,9.6-17.6,14.6-26.2,1.9-3.2,2.2-5.4-.3-8.7-14.8-19.5-14.8-41,1.3-59.4,13.4-15.4,31.3-20.2,51.2-16.2,21.9,4.3,37.6,20.9,39.9,43,1.9,18-8.3,37.4-28.9,46.6-14.7,6.6-29.7,7-44.5.1-3.4-1.5-5.7-1.2-8.5,1.3-7.8,7-15.9,13.7-23.8,20.5C128.94,113,128.44,112.84,128.84,111.84Z"/><path id="Path_6" data-name="Path 6" class="cls-3" d="M31.84,132.64c-1.6-9.3-1.2-18.6-.2-27.9-1.5-10.6,4.7-18.2,15.4-18.9,5.9-.4,11.9.2,17.8-.9a18.85,18.85,0,0,0,7.1-.3c9.7-.7,19.5-.5,29.2-1.6,7.1-.9,10.2,1.1,11.8,8.1a36,36,0,0,1,1,9.8v45.7c-2.5,3-5.9,1.3-8.8,1.8H86.24c-3.3.6-6.7-2.1-9.9.4a9.61,9.61,0,0,1-6.5.1c-4.4-.7-8.7.5-13.1.1-2.1-.2-4.3.1-6.2-.9-1.6-.8-2.2-2.4-2.7-4-2-6.3-6.1-9.9-12.9-10.1C33.64,133.94,32.54,133.84,31.84,132.64Z"/><path id="Path_7" data-name="Path 7" class="cls-4" d="M112.94,101.74c-.9-4.2-2.2-8.3-2.8-12.6-.5-3.8-2.3-4.4-5.7-4.2-10.9.7-21.8,1.1-32.7,1.6-2.3-.4-4.7-.8-7,.2-7.5,1.6-15.2.8-22.7,1.6-2.9.3-4.4,1.3-5.3,4-1.5,4.2-3.4,8.2-5.1,12.4-5-6.5-7.6-14.3-11.8-21.3-.7-1.1-1.2-2.4-1.8-3.6-4.3-8.3-4.3-8.2,4-12,12.1-5.6,24.2-11.2,36.1-17,3.7-1.8,5.8-1.7,6.2,2.8.4,3.8,2.3,3,4.7,1.5,7.3-4.7,14.6-9.3,21.9-13.9,1.6-1,3.1-2.4,6.1-2.4-2.4,4.8-4.5,9.1-6.5,13.4-.6,1.3-2.3,2.7-1.2,3.9,1.4,1.5,3.1-.3,4.5-.9,4.2-1.8,8.1-4.3,13.2-5.7-1.6,5.2-5.7,8-7.8,12.8,3.1-.2,5.8-.4,8.5-.7.8,2-.7,2.9-1.4,4.1-3.5,5.5-3.5,5.4,3,6.8,4,.8,10,0,11.6,3.1,1.4,2.8-1.3,7.8-2.3,11.8-1.2,4.5-2.6,8.9-3.9,13.4C114.24,101.34,114,102.34,112.94,101.74Z"/><path id="Path_10" data-name="Path 10" class="cls-5" d="M31.84,132.64c10.5-2,17.2,3.2,18.2,14.1,1.6,2.1,1.2,4.2.2,6.3-2.9,4.5-6.5,8.1-12.3,8.3a9.45,9.45,0,0,1-4.1,0,3.75,3.75,0,0,1-3.8-2.7c-5.2-3.2-8.6-7.7-7.9-14A13,13,0,0,1,31.84,132.64Z"/><path id="Path_21" data-name="Path 21" class="cls-6" d="M128.84,111.84l1,1c-.5.7-1.1,2.1-2.1,1.3C127,113.44,128.14,112.44,128.84,111.84Z"/><path id="Path_22" data-name="Path 22" class="cls-7" d="M112.94,101.74a15.83,15.83,0,0,0,1.8-1,5.19,5.19,0,0,1-1,3.6A2.71,2.71,0,0,1,112.94,101.74Z"/><path id="Path_34" data-name="Path 34" class="cls-8" d="M101.14,116.64c-2-.1-3.5-1.1-3.7-3.2-.2-2.4,1.1-3.8,3.5-3.9a3.07,3.07,0,0,1,3.48,2.58,2.89,2.89,0,0,1,0,.72C104.54,114.94,103.24,116.24,101.14,116.64Z"/><path id="Path_35" data-name="Path 35" class="cls-9" d="M51.74,112.74c-.1,2.1-1.2,3.5-3.3,3.7a3.21,3.21,0,0,1-3.76-2.55,3.35,3.35,0,0,1,0-1c-.1-2.2,1.2-3.4,3.4-3.4A3.47,3.47,0,0,1,51.74,112.74Z"/><path id="Path_38" data-name="Path 38" class="cls-10" d="M64.84,86.84c2.3-1.6,4.6-1.4,7-.2C69.44,86.74,67.14,86.74,64.84,86.84Z"/></g><path id="Path_53" data-name="Path 53" class="cls-11" d="M55.74,126.74s15.5,16.6,37.5,0"/><g id="Group_13" data-name="Group 13"><path id="Path_54" data-name="Path 54" class="cls-12" d="M160.84,59.14a3.52,3.52,0,0,1-1.2.2c-.5,0-1.1.1-1.7.1a6.31,6.31,0,0,1-1.5-.1,2.17,2.17,0,0,1-1.1-.5,2.14,2.14,0,0,1-.7-.9,3.76,3.76,0,0,1-.2-1.6v-8.4a2.78,2.78,0,0,0-.8-2.2,3.16,3.16,0,0,0-1.9-.6,8.45,8.45,0,0,0-1.5.2,3,3,0,0,0-1.1.5v13.4a3.52,3.52,0,0,1-1.2.2,8.78,8.78,0,0,1-1.7.1,6.31,6.31,0,0,1-1.5-.1,2.17,2.17,0,0,1-1.1-.5,2.14,2.14,0,0,1-.7-.9,3.76,3.76,0,0,1-.2-1.6V34.24c.3-.1.7-.1,1.2-.2a9.65,9.65,0,0,1,1.7-.1,6.84,6.84,0,0,1,1.5.1,2.31,2.31,0,0,1,1.1.5,2.27,2.27,0,0,1,.7.9,3.65,3.65,0,0,1,.2,1.6v3.8a7.91,7.91,0,0,1,1.5-.4,16.21,16.21,0,0,1,2.2-.2,8.41,8.41,0,0,1,5.9,1.9,7.19,7.19,0,0,1,2.1,5.6Z"/><path id="Path_55" data-name="Path 55" class="cls-12" d="M174.74,59.84a14.22,14.22,0,0,1-4.2-.6,10.18,10.18,0,0,1-3.4-1.9,8.44,8.44,0,0,1-2.3-3.2,12.52,12.52,0,0,1-.8-4.5,11.13,11.13,0,0,1,.8-4.3,8.46,8.46,0,0,1,2.2-3,7.38,7.38,0,0,1,3.1-1.7,10.43,10.43,0,0,1,3.5-.6,10.83,10.83,0,0,1,3.7.6,9.31,9.31,0,0,1,2.9,1.7,8.38,8.38,0,0,1,1.9,2.6,9,9,0,0,1,.7,3.3,2.54,2.54,0,0,1-.7,2,3.35,3.35,0,0,1-2,.9l-9.5,1.4a3.49,3.49,0,0,0,1.7,1.9,7.22,7.22,0,0,0,3,.6,10.1,10.1,0,0,0,3-.4,16.87,16.87,0,0,0,2.3-.9,2.72,2.72,0,0,1,1,1.1,2.65,2.65,0,0,1,.4,1.5,2.79,2.79,0,0,1-1.6,2.6,9.86,9.86,0,0,1-2.8.9A28.05,28.05,0,0,0,174.74,59.84Zm-1.1-15.1a4.37,4.37,0,0,0-1.6.3,4.56,4.56,0,0,0-1.1.8,2.48,2.48,0,0,0-.6,1.1,5.47,5.47,0,0,0-.2,1.2l6.5-1.1a3.64,3.64,0,0,0-.8-1.5,2.94,2.94,0,0,0-2.2-.8Z"/><path id="Path_56" data-name="Path 56" class="cls-12" d="M192.54,59.14c-.3.1-.7.1-1.2.2a8.78,8.78,0,0,1-1.7.1,6.31,6.31,0,0,1-1.5-.1,2.17,2.17,0,0,1-1.1-.5,2.14,2.14,0,0,1-.7-.9,3.76,3.76,0,0,1-.2-1.6V34.24c.3-.1.7-.1,1.2-.2a9.65,9.65,0,0,1,1.7-.1,6.84,6.84,0,0,1,1.5.1,2.31,2.31,0,0,1,1.1.5,2.27,2.27,0,0,1,.7.9,3.65,3.65,0,0,1,.2,1.6Z"/><path id="Path_57" data-name="Path 57" class="cls-12" d="M203.24,59.14c-.3.1-.7.1-1.2.2a8.78,8.78,0,0,1-1.7.1,6.31,6.31,0,0,1-1.5-.1,2.17,2.17,0,0,1-1.1-.5,2.14,2.14,0,0,1-.7-.9,3.76,3.76,0,0,1-.2-1.6V34.24c.3-.1.7-.1,1.2-.2a9.65,9.65,0,0,1,1.7-.1,6.84,6.84,0,0,1,1.5.1,2.31,2.31,0,0,1,1.1.5,2.27,2.27,0,0,1,.7.9,3.65,3.65,0,0,1,.2,1.6Z"/><path id="Path_58" data-name="Path 58" class="cls-12" d="M226.64,49.94a10.73,10.73,0,0,1-.7,4.2,9.6,9.6,0,0,1-2,3.1,8.54,8.54,0,0,1-3.2,1.9,13,13,0,0,1-4.1.7,10.64,10.64,0,0,1-4.1-.7,9.7,9.7,0,0,1-3.2-2,7.86,7.86,0,0,1-2-3.1,10.6,10.6,0,0,1-.7-4.1,10.64,10.64,0,0,1,.7-4.1,9.71,9.71,0,0,1,2-3.1,8.83,8.83,0,0,1,3.2-2,12.4,12.4,0,0,1,8.2,0,9.6,9.6,0,0,1,3.2,2,7.93,7.93,0,0,1,2,3.1A13,13,0,0,1,226.64,49.94Zm-13.4,0a6,6,0,0,0,.9,3.6,2.9,2.9,0,0,0,2.5,1.2,2.75,2.75,0,0,0,2.5-1.3,5.92,5.92,0,0,0,.9-3.6,5.86,5.86,0,0,0-.9-3.5,3.21,3.21,0,0,0-4.5-.5,3.94,3.94,0,0,0-.5.5,6.25,6.25,0,0,0-.9,3.6Z"/></g></g></svg>